<mxfile host="Electron" agent="Mozilla/5.0 (Windows NT 10.0; Win64; x64) AppleWebKit/537.36 (KHTML, like Gecko) draw.io/24.7.17 Chrome/128.0.6613.36 Electron/32.0.1 Safari/537.36" version="24.7.17">
  <diagram name="Страница — 1" id="KO-LhqCNToSgRL-L9lDW">
    <mxGraphModel dx="1221" dy="717" grid="1" gridSize="10" guides="1" tooltips="1" connect="1" arrows="1" fold="1" page="1" pageScale="1" pageWidth="1169" pageHeight="1654" math="0" shadow="0">
      <root>
        <mxCell id="0" />
        <mxCell id="1" parent="0" />
        <mxCell id="frXkskpRQ1eDV_mQN84O-4" style="edgeStyle=orthogonalEdgeStyle;rounded=0;orthogonalLoop=1;jettySize=auto;html=1;entryX=0.5;entryY=0;entryDx=0;entryDy=0;" edge="1" parent="1" source="frXkskpRQ1eDV_mQN84O-1" target="frXkskpRQ1eDV_mQN84O-2">
          <mxGeometry relative="1" as="geometry" />
        </mxCell>
        <mxCell id="frXkskpRQ1eDV_mQN84O-1" value="&lt;font color=&quot;#ff3333&quot;&gt;Start&lt;/font&gt;" style="ellipse;whiteSpace=wrap;html=1;" vertex="1" parent="1">
          <mxGeometry x="170" y="30" width="120" height="80" as="geometry" />
        </mxCell>
        <mxCell id="frXkskpRQ1eDV_mQN84O-156" style="edgeStyle=orthogonalEdgeStyle;rounded=0;orthogonalLoop=1;jettySize=auto;html=1;" edge="1" parent="1" source="frXkskpRQ1eDV_mQN84O-2" target="frXkskpRQ1eDV_mQN84O-155">
          <mxGeometry relative="1" as="geometry" />
        </mxCell>
        <mxCell id="frXkskpRQ1eDV_mQN84O-2" value="Weather enum" style="rounded=0;whiteSpace=wrap;html=1;" vertex="1" parent="1">
          <mxGeometry x="183.75" y="140" width="92.5" height="40" as="geometry" />
        </mxCell>
        <mxCell id="frXkskpRQ1eDV_mQN84O-6" value="" style="verticalLabelPosition=bottom;verticalAlign=top;html=1;shape=process;whiteSpace=wrap;rounded=1;size=0.14;arcSize=6;" vertex="1" parent="1">
          <mxGeometry x="340" y="510" width="140" height="60" as="geometry" />
        </mxCell>
        <mxCell id="frXkskpRQ1eDV_mQN84O-38" value="" style="group" vertex="1" connectable="0" parent="1">
          <mxGeometry x="305" y="30" width="280" height="315" as="geometry" />
        </mxCell>
        <mxCell id="frXkskpRQ1eDV_mQN84O-9" style="edgeStyle=orthogonalEdgeStyle;rounded=0;orthogonalLoop=1;jettySize=auto;html=1;" edge="1" parent="frXkskpRQ1eDV_mQN84O-38" source="frXkskpRQ1eDV_mQN84O-7" target="frXkskpRQ1eDV_mQN84O-8">
          <mxGeometry relative="1" as="geometry" />
        </mxCell>
        <mxCell id="frXkskpRQ1eDV_mQN84O-7" value="&lt;font color=&quot;#00cc00&quot;&gt;Weather_type&amp;nbsp;&lt;/font&gt;&lt;div&gt;&lt;font color=&quot;#00cc00&quot;&gt;logical function&lt;/font&gt;&lt;/div&gt;" style="ellipse;whiteSpace=wrap;html=1;" vertex="1" parent="frXkskpRQ1eDV_mQN84O-38">
          <mxGeometry width="140" height="70" as="geometry" />
        </mxCell>
        <mxCell id="frXkskpRQ1eDV_mQN84O-12" style="edgeStyle=orthogonalEdgeStyle;rounded=0;orthogonalLoop=1;jettySize=auto;html=1;" edge="1" parent="frXkskpRQ1eDV_mQN84O-38" source="frXkskpRQ1eDV_mQN84O-8">
          <mxGeometry relative="1" as="geometry">
            <mxPoint x="190" y="150" as="targetPoint" />
          </mxGeometry>
        </mxCell>
        <mxCell id="frXkskpRQ1eDV_mQN84O-13" value="No" style="edgeLabel;html=1;align=center;verticalAlign=middle;resizable=0;points=[];" vertex="1" connectable="0" parent="frXkskpRQ1eDV_mQN84O-12">
          <mxGeometry x="-0.0496" y="3" relative="1" as="geometry">
            <mxPoint as="offset" />
          </mxGeometry>
        </mxCell>
        <mxCell id="frXkskpRQ1eDV_mQN84O-15" style="edgeStyle=orthogonalEdgeStyle;rounded=0;orthogonalLoop=1;jettySize=auto;html=1;" edge="1" parent="frXkskpRQ1eDV_mQN84O-38" source="frXkskpRQ1eDV_mQN84O-8">
          <mxGeometry relative="1" as="geometry">
            <mxPoint x="70" y="245" as="targetPoint" />
          </mxGeometry>
        </mxCell>
        <mxCell id="frXkskpRQ1eDV_mQN84O-16" value="Yes" style="edgeLabel;html=1;align=center;verticalAlign=middle;resizable=0;points=[];" vertex="1" connectable="0" parent="frXkskpRQ1eDV_mQN84O-15">
          <mxGeometry x="-0.0948" y="1" relative="1" as="geometry">
            <mxPoint as="offset" />
          </mxGeometry>
        </mxCell>
        <mxCell id="frXkskpRQ1eDV_mQN84O-8" value="Input = sunny, windy, cloudy, rainy, snowy?" style="rhombus;whiteSpace=wrap;html=1;" vertex="1" parent="frXkskpRQ1eDV_mQN84O-38">
          <mxGeometry y="95" width="140" height="110" as="geometry" />
        </mxCell>
        <mxCell id="frXkskpRQ1eDV_mQN84O-14" value="return false" style="rounded=0;whiteSpace=wrap;html=1;" vertex="1" parent="frXkskpRQ1eDV_mQN84O-38">
          <mxGeometry x="190" y="122.5" width="90" height="55" as="geometry" />
        </mxCell>
        <mxCell id="frXkskpRQ1eDV_mQN84O-19" value="&lt;font color=&quot;#ffff00&quot;&gt;can process next function&lt;/font&gt;" style="ellipse;whiteSpace=wrap;html=1;" vertex="1" parent="frXkskpRQ1eDV_mQN84O-38">
          <mxGeometry x="35" y="245" width="70" height="70" as="geometry" />
        </mxCell>
        <mxCell id="frXkskpRQ1eDV_mQN84O-69" value="" style="group" vertex="1" connectable="0" parent="1">
          <mxGeometry x="610" y="30" width="270" height="1000" as="geometry" />
        </mxCell>
        <mxCell id="frXkskpRQ1eDV_mQN84O-23" style="edgeStyle=orthogonalEdgeStyle;rounded=0;orthogonalLoop=1;jettySize=auto;html=1;entryX=0.5;entryY=0;entryDx=0;entryDy=0;" edge="1" parent="frXkskpRQ1eDV_mQN84O-69" source="frXkskpRQ1eDV_mQN84O-18" target="frXkskpRQ1eDV_mQN84O-22">
          <mxGeometry relative="1" as="geometry" />
        </mxCell>
        <mxCell id="frXkskpRQ1eDV_mQN84O-18" value="&lt;font color=&quot;#00cc00&quot;&gt;Activity_type function&lt;/font&gt;" style="ellipse;whiteSpace=wrap;html=1;" vertex="1" parent="frXkskpRQ1eDV_mQN84O-69">
          <mxGeometry y="100" width="140" height="70" as="geometry" />
        </mxCell>
        <mxCell id="frXkskpRQ1eDV_mQN84O-21" style="edgeStyle=orthogonalEdgeStyle;rounded=0;orthogonalLoop=1;jettySize=auto;html=1;entryX=0.5;entryY=0;entryDx=0;entryDy=0;" edge="1" parent="frXkskpRQ1eDV_mQN84O-69" source="frXkskpRQ1eDV_mQN84O-20" target="frXkskpRQ1eDV_mQN84O-18">
          <mxGeometry relative="1" as="geometry" />
        </mxCell>
        <mxCell id="frXkskpRQ1eDV_mQN84O-20" value="&lt;font color=&quot;#ffff00&quot;&gt;can process next function&lt;/font&gt;" style="ellipse;whiteSpace=wrap;html=1;" vertex="1" parent="frXkskpRQ1eDV_mQN84O-69">
          <mxGeometry x="35" width="70" height="70" as="geometry" />
        </mxCell>
        <mxCell id="frXkskpRQ1eDV_mQN84O-25" style="edgeStyle=orthogonalEdgeStyle;rounded=0;orthogonalLoop=1;jettySize=auto;html=1;" edge="1" parent="frXkskpRQ1eDV_mQN84O-69" source="frXkskpRQ1eDV_mQN84O-22" target="frXkskpRQ1eDV_mQN84O-24">
          <mxGeometry relative="1" as="geometry" />
        </mxCell>
        <mxCell id="frXkskpRQ1eDV_mQN84O-29" value="yes" style="edgeLabel;html=1;align=center;verticalAlign=middle;resizable=0;points=[];" vertex="1" connectable="0" parent="frXkskpRQ1eDV_mQN84O-25">
          <mxGeometry x="0.1273" y="2" relative="1" as="geometry">
            <mxPoint as="offset" />
          </mxGeometry>
        </mxCell>
        <mxCell id="frXkskpRQ1eDV_mQN84O-34" style="edgeStyle=orthogonalEdgeStyle;rounded=0;orthogonalLoop=1;jettySize=auto;html=1;" edge="1" parent="frXkskpRQ1eDV_mQN84O-69" source="frXkskpRQ1eDV_mQN84O-22" target="frXkskpRQ1eDV_mQN84O-26">
          <mxGeometry relative="1" as="geometry" />
        </mxCell>
        <mxCell id="frXkskpRQ1eDV_mQN84O-48" value="no" style="edgeLabel;html=1;align=center;verticalAlign=middle;resizable=0;points=[];" vertex="1" connectable="0" parent="frXkskpRQ1eDV_mQN84O-34">
          <mxGeometry x="-0.2762" y="-1" relative="1" as="geometry">
            <mxPoint as="offset" />
          </mxGeometry>
        </mxCell>
        <mxCell id="frXkskpRQ1eDV_mQN84O-22" value="w==sunny?" style="rhombus;whiteSpace=wrap;html=1;" vertex="1" parent="frXkskpRQ1eDV_mQN84O-69">
          <mxGeometry x="35" y="200" width="70" height="70" as="geometry" />
        </mxCell>
        <mxCell id="frXkskpRQ1eDV_mQN84O-36" style="edgeStyle=orthogonalEdgeStyle;rounded=0;orthogonalLoop=1;jettySize=auto;html=1;" edge="1" parent="frXkskpRQ1eDV_mQN84O-69" source="frXkskpRQ1eDV_mQN84O-24" target="frXkskpRQ1eDV_mQN84O-33">
          <mxGeometry relative="1" as="geometry" />
        </mxCell>
        <mxCell id="frXkskpRQ1eDV_mQN84O-24" value="output of w=sunny" style="shape=parallelogram;perimeter=parallelogramPerimeter;whiteSpace=wrap;html=1;fixedSize=1;" vertex="1" parent="frXkskpRQ1eDV_mQN84O-69">
          <mxGeometry x="140" y="215" width="130" height="40" as="geometry" />
        </mxCell>
        <mxCell id="frXkskpRQ1eDV_mQN84O-31" style="edgeStyle=orthogonalEdgeStyle;rounded=0;orthogonalLoop=1;jettySize=auto;html=1;" edge="1" parent="frXkskpRQ1eDV_mQN84O-69" source="frXkskpRQ1eDV_mQN84O-26" target="frXkskpRQ1eDV_mQN84O-30">
          <mxGeometry relative="1" as="geometry" />
        </mxCell>
        <mxCell id="frXkskpRQ1eDV_mQN84O-32" value="yes" style="edgeLabel;html=1;align=center;verticalAlign=middle;resizable=0;points=[];" vertex="1" connectable="0" parent="frXkskpRQ1eDV_mQN84O-31">
          <mxGeometry x="0.0909" relative="1" as="geometry">
            <mxPoint as="offset" />
          </mxGeometry>
        </mxCell>
        <mxCell id="frXkskpRQ1eDV_mQN84O-40" style="edgeStyle=orthogonalEdgeStyle;rounded=0;orthogonalLoop=1;jettySize=auto;html=1;" edge="1" parent="frXkskpRQ1eDV_mQN84O-69" source="frXkskpRQ1eDV_mQN84O-26" target="frXkskpRQ1eDV_mQN84O-39">
          <mxGeometry relative="1" as="geometry" />
        </mxCell>
        <mxCell id="frXkskpRQ1eDV_mQN84O-49" value="no" style="edgeLabel;html=1;align=center;verticalAlign=middle;resizable=0;points=[];" vertex="1" connectable="0" parent="frXkskpRQ1eDV_mQN84O-40">
          <mxGeometry x="-0.2476" relative="1" as="geometry">
            <mxPoint as="offset" />
          </mxGeometry>
        </mxCell>
        <mxCell id="frXkskpRQ1eDV_mQN84O-26" value="w==cloudy?" style="rhombus;whiteSpace=wrap;html=1;" vertex="1" parent="frXkskpRQ1eDV_mQN84O-69">
          <mxGeometry x="35" y="340" width="70" height="70" as="geometry" />
        </mxCell>
        <mxCell id="frXkskpRQ1eDV_mQN84O-45" style="edgeStyle=orthogonalEdgeStyle;rounded=0;orthogonalLoop=1;jettySize=auto;html=1;" edge="1" parent="frXkskpRQ1eDV_mQN84O-69" source="frXkskpRQ1eDV_mQN84O-30" target="frXkskpRQ1eDV_mQN84O-44">
          <mxGeometry relative="1" as="geometry" />
        </mxCell>
        <mxCell id="frXkskpRQ1eDV_mQN84O-30" value="output of w=cloudy" style="shape=parallelogram;perimeter=parallelogramPerimeter;whiteSpace=wrap;html=1;fixedSize=1;" vertex="1" parent="frXkskpRQ1eDV_mQN84O-69">
          <mxGeometry x="140" y="355" width="130" height="40" as="geometry" />
        </mxCell>
        <mxCell id="frXkskpRQ1eDV_mQN84O-33" value="&lt;font color=&quot;#ffff00&quot;&gt;can process next function&lt;/font&gt;" style="ellipse;whiteSpace=wrap;html=1;" vertex="1" parent="frXkskpRQ1eDV_mQN84O-69">
          <mxGeometry x="170" y="270" width="70" height="70" as="geometry" />
        </mxCell>
        <mxCell id="frXkskpRQ1eDV_mQN84O-42" style="edgeStyle=orthogonalEdgeStyle;rounded=0;orthogonalLoop=1;jettySize=auto;html=1;" edge="1" parent="frXkskpRQ1eDV_mQN84O-69" source="frXkskpRQ1eDV_mQN84O-39" target="frXkskpRQ1eDV_mQN84O-41">
          <mxGeometry relative="1" as="geometry" />
        </mxCell>
        <mxCell id="frXkskpRQ1eDV_mQN84O-43" value="yes" style="edgeLabel;html=1;align=center;verticalAlign=middle;resizable=0;points=[];" vertex="1" connectable="0" parent="frXkskpRQ1eDV_mQN84O-42">
          <mxGeometry x="0.0424" relative="1" as="geometry">
            <mxPoint as="offset" />
          </mxGeometry>
        </mxCell>
        <mxCell id="frXkskpRQ1eDV_mQN84O-47" style="edgeStyle=orthogonalEdgeStyle;rounded=0;orthogonalLoop=1;jettySize=auto;html=1;" edge="1" parent="frXkskpRQ1eDV_mQN84O-69" source="frXkskpRQ1eDV_mQN84O-39" target="frXkskpRQ1eDV_mQN84O-46">
          <mxGeometry relative="1" as="geometry" />
        </mxCell>
        <mxCell id="frXkskpRQ1eDV_mQN84O-50" value="no" style="edgeLabel;html=1;align=center;verticalAlign=middle;resizable=0;points=[];" vertex="1" connectable="0" parent="frXkskpRQ1eDV_mQN84O-47">
          <mxGeometry x="-0.2476" y="2" relative="1" as="geometry">
            <mxPoint as="offset" />
          </mxGeometry>
        </mxCell>
        <mxCell id="frXkskpRQ1eDV_mQN84O-39" value="w==windy?" style="rhombus;whiteSpace=wrap;html=1;" vertex="1" parent="frXkskpRQ1eDV_mQN84O-69">
          <mxGeometry x="35" y="480" width="70" height="70" as="geometry" />
        </mxCell>
        <mxCell id="frXkskpRQ1eDV_mQN84O-68" style="edgeStyle=orthogonalEdgeStyle;rounded=0;orthogonalLoop=1;jettySize=auto;html=1;" edge="1" parent="frXkskpRQ1eDV_mQN84O-69" source="frXkskpRQ1eDV_mQN84O-41" target="frXkskpRQ1eDV_mQN84O-65">
          <mxGeometry relative="1" as="geometry" />
        </mxCell>
        <mxCell id="frXkskpRQ1eDV_mQN84O-41" value="output of w=windy" style="shape=parallelogram;perimeter=parallelogramPerimeter;whiteSpace=wrap;html=1;fixedSize=1;" vertex="1" parent="frXkskpRQ1eDV_mQN84O-69">
          <mxGeometry x="140" y="495" width="130" height="40" as="geometry" />
        </mxCell>
        <mxCell id="frXkskpRQ1eDV_mQN84O-151" style="edgeStyle=orthogonalEdgeStyle;rounded=0;orthogonalLoop=1;jettySize=auto;html=1;" edge="1" parent="frXkskpRQ1eDV_mQN84O-69" source="frXkskpRQ1eDV_mQN84O-44">
          <mxGeometry relative="1" as="geometry">
            <mxPoint x="290" y="300" as="targetPoint" />
          </mxGeometry>
        </mxCell>
        <mxCell id="frXkskpRQ1eDV_mQN84O-44" value="&lt;font color=&quot;#ffff00&quot;&gt;can process next function&lt;/font&gt;" style="ellipse;whiteSpace=wrap;html=1;" vertex="1" parent="frXkskpRQ1eDV_mQN84O-69">
          <mxGeometry x="170" y="410" width="70" height="70" as="geometry" />
        </mxCell>
        <mxCell id="frXkskpRQ1eDV_mQN84O-54" style="edgeStyle=orthogonalEdgeStyle;rounded=0;orthogonalLoop=1;jettySize=auto;html=1;" edge="1" parent="frXkskpRQ1eDV_mQN84O-69" source="frXkskpRQ1eDV_mQN84O-46">
          <mxGeometry relative="1" as="geometry">
            <mxPoint x="70" y="760" as="targetPoint" />
          </mxGeometry>
        </mxCell>
        <mxCell id="frXkskpRQ1eDV_mQN84O-55" value="no" style="edgeLabel;html=1;align=center;verticalAlign=middle;resizable=0;points=[];" vertex="1" connectable="0" parent="frXkskpRQ1eDV_mQN84O-54">
          <mxGeometry x="-0.0544" relative="1" as="geometry">
            <mxPoint as="offset" />
          </mxGeometry>
        </mxCell>
        <mxCell id="frXkskpRQ1eDV_mQN84O-59" style="edgeStyle=orthogonalEdgeStyle;rounded=0;orthogonalLoop=1;jettySize=auto;html=1;entryX=0;entryY=0.5;entryDx=0;entryDy=0;" edge="1" parent="frXkskpRQ1eDV_mQN84O-69" source="frXkskpRQ1eDV_mQN84O-46" target="frXkskpRQ1eDV_mQN84O-56">
          <mxGeometry relative="1" as="geometry" />
        </mxCell>
        <mxCell id="frXkskpRQ1eDV_mQN84O-60" value="yes" style="edgeLabel;html=1;align=center;verticalAlign=middle;resizable=0;points=[];" vertex="1" connectable="0" parent="frXkskpRQ1eDV_mQN84O-59">
          <mxGeometry x="0.1152" y="4" relative="1" as="geometry">
            <mxPoint as="offset" />
          </mxGeometry>
        </mxCell>
        <mxCell id="frXkskpRQ1eDV_mQN84O-46" value="w==rainy?" style="rhombus;whiteSpace=wrap;html=1;" vertex="1" parent="frXkskpRQ1eDV_mQN84O-69">
          <mxGeometry x="35" y="620" width="70" height="70" as="geometry" />
        </mxCell>
        <mxCell id="frXkskpRQ1eDV_mQN84O-61" style="edgeStyle=orthogonalEdgeStyle;rounded=0;orthogonalLoop=1;jettySize=auto;html=1;entryX=0.5;entryY=0;entryDx=0;entryDy=0;" edge="1" parent="frXkskpRQ1eDV_mQN84O-69" source="frXkskpRQ1eDV_mQN84O-51" target="frXkskpRQ1eDV_mQN84O-52">
          <mxGeometry relative="1" as="geometry" />
        </mxCell>
        <mxCell id="frXkskpRQ1eDV_mQN84O-51" value="w==snowy" style="rhombus;whiteSpace=wrap;html=1;" vertex="1" parent="frXkskpRQ1eDV_mQN84O-69">
          <mxGeometry x="35" y="762" width="70" height="70" as="geometry" />
        </mxCell>
        <mxCell id="frXkskpRQ1eDV_mQN84O-63" style="edgeStyle=orthogonalEdgeStyle;rounded=0;orthogonalLoop=1;jettySize=auto;html=1;entryX=0.5;entryY=0;entryDx=0;entryDy=0;" edge="1" parent="frXkskpRQ1eDV_mQN84O-69" source="frXkskpRQ1eDV_mQN84O-52" target="frXkskpRQ1eDV_mQN84O-62">
          <mxGeometry relative="1" as="geometry" />
        </mxCell>
        <mxCell id="frXkskpRQ1eDV_mQN84O-52" value="output of w=snowy" style="shape=parallelogram;perimeter=parallelogramPerimeter;whiteSpace=wrap;html=1;fixedSize=1;" vertex="1" parent="frXkskpRQ1eDV_mQN84O-69">
          <mxGeometry x="5" y="870" width="130" height="40" as="geometry" />
        </mxCell>
        <mxCell id="frXkskpRQ1eDV_mQN84O-67" style="edgeStyle=orthogonalEdgeStyle;rounded=0;orthogonalLoop=1;jettySize=auto;html=1;" edge="1" parent="frXkskpRQ1eDV_mQN84O-69" source="frXkskpRQ1eDV_mQN84O-56" target="frXkskpRQ1eDV_mQN84O-64">
          <mxGeometry relative="1" as="geometry" />
        </mxCell>
        <mxCell id="frXkskpRQ1eDV_mQN84O-56" value="output of w=rainy" style="shape=parallelogram;perimeter=parallelogramPerimeter;whiteSpace=wrap;html=1;fixedSize=1;" vertex="1" parent="frXkskpRQ1eDV_mQN84O-69">
          <mxGeometry x="140" y="635" width="130" height="40" as="geometry" />
        </mxCell>
        <mxCell id="frXkskpRQ1eDV_mQN84O-154" style="edgeStyle=orthogonalEdgeStyle;rounded=0;orthogonalLoop=1;jettySize=auto;html=1;" edge="1" parent="frXkskpRQ1eDV_mQN84O-69" source="frXkskpRQ1eDV_mQN84O-62">
          <mxGeometry relative="1" as="geometry">
            <mxPoint x="290" y="720" as="targetPoint" />
          </mxGeometry>
        </mxCell>
        <mxCell id="frXkskpRQ1eDV_mQN84O-62" value="&lt;font color=&quot;#ffff00&quot;&gt;can process next function&lt;/font&gt;" style="ellipse;whiteSpace=wrap;html=1;" vertex="1" parent="frXkskpRQ1eDV_mQN84O-69">
          <mxGeometry x="35" y="930" width="70" height="70" as="geometry" />
        </mxCell>
        <mxCell id="frXkskpRQ1eDV_mQN84O-153" style="edgeStyle=orthogonalEdgeStyle;rounded=0;orthogonalLoop=1;jettySize=auto;html=1;" edge="1" parent="frXkskpRQ1eDV_mQN84O-69" source="frXkskpRQ1eDV_mQN84O-64">
          <mxGeometry relative="1" as="geometry">
            <mxPoint x="290" y="580" as="targetPoint" />
          </mxGeometry>
        </mxCell>
        <mxCell id="frXkskpRQ1eDV_mQN84O-64" value="&lt;font color=&quot;#ffff00&quot;&gt;can process next function&lt;/font&gt;" style="ellipse;whiteSpace=wrap;html=1;" vertex="1" parent="frXkskpRQ1eDV_mQN84O-69">
          <mxGeometry x="170" y="692" width="70" height="70" as="geometry" />
        </mxCell>
        <mxCell id="frXkskpRQ1eDV_mQN84O-152" style="edgeStyle=orthogonalEdgeStyle;rounded=0;orthogonalLoop=1;jettySize=auto;html=1;" edge="1" parent="frXkskpRQ1eDV_mQN84O-69" source="frXkskpRQ1eDV_mQN84O-65">
          <mxGeometry relative="1" as="geometry">
            <mxPoint x="290" y="440" as="targetPoint" />
          </mxGeometry>
        </mxCell>
        <mxCell id="frXkskpRQ1eDV_mQN84O-65" value="&lt;font color=&quot;#ffff00&quot;&gt;can process next function&lt;/font&gt;" style="ellipse;whiteSpace=wrap;html=1;" vertex="1" parent="frXkskpRQ1eDV_mQN84O-69">
          <mxGeometry x="170" y="550" width="70" height="70" as="geometry" />
        </mxCell>
        <mxCell id="frXkskpRQ1eDV_mQN84O-71" style="edgeStyle=orthogonalEdgeStyle;rounded=0;orthogonalLoop=1;jettySize=auto;html=1;entryX=0;entryY=0.5;entryDx=0;entryDy=0;" edge="1" parent="1" source="frXkskpRQ1eDV_mQN84O-19" target="frXkskpRQ1eDV_mQN84O-20">
          <mxGeometry relative="1" as="geometry">
            <mxPoint x="600" y="70" as="targetPoint" />
            <Array as="points">
              <mxPoint x="600" y="310" />
              <mxPoint x="600" y="65" />
            </Array>
          </mxGeometry>
        </mxCell>
        <mxCell id="frXkskpRQ1eDV_mQN84O-136" style="edgeStyle=orthogonalEdgeStyle;rounded=0;orthogonalLoop=1;jettySize=auto;html=1;" edge="1" parent="1" source="frXkskpRQ1eDV_mQN84O-125" target="frXkskpRQ1eDV_mQN84O-128">
          <mxGeometry relative="1" as="geometry" />
        </mxCell>
        <mxCell id="frXkskpRQ1eDV_mQN84O-125" value="&lt;font color=&quot;#ffff00&quot;&gt;can process next function&lt;/font&gt;" style="ellipse;whiteSpace=wrap;html=1;" vertex="1" parent="1">
          <mxGeometry x="1007.5" y="30" width="70" height="70" as="geometry" />
        </mxCell>
        <mxCell id="frXkskpRQ1eDV_mQN84O-139" value="" style="edgeStyle=orthogonalEdgeStyle;rounded=0;orthogonalLoop=1;jettySize=auto;html=1;" edge="1" parent="1" source="frXkskpRQ1eDV_mQN84O-128" target="frXkskpRQ1eDV_mQN84O-137">
          <mxGeometry relative="1" as="geometry" />
        </mxCell>
        <mxCell id="frXkskpRQ1eDV_mQN84O-128" value="&lt;font color=&quot;#00cc00&quot;&gt;Jacket_need&lt;/font&gt;&lt;span style=&quot;color: rgb(0, 204, 0); background-color: initial;&quot;&gt;&amp;nbsp;function&lt;/span&gt;" style="ellipse;whiteSpace=wrap;html=1;" vertex="1" parent="1">
          <mxGeometry x="972.5" y="125" width="140" height="70" as="geometry" />
        </mxCell>
        <mxCell id="frXkskpRQ1eDV_mQN84O-143" style="edgeStyle=orthogonalEdgeStyle;rounded=0;orthogonalLoop=1;jettySize=auto;html=1;" edge="1" parent="1">
          <mxGeometry relative="1" as="geometry">
            <mxPoint x="970" y="360" as="targetPoint" />
            <mxPoint x="1000" y="270" as="sourcePoint" />
            <Array as="points">
              <mxPoint x="970" y="270" />
              <mxPoint x="970" y="360" />
            </Array>
          </mxGeometry>
        </mxCell>
        <mxCell id="frXkskpRQ1eDV_mQN84O-145" style="edgeStyle=orthogonalEdgeStyle;rounded=0;orthogonalLoop=1;jettySize=auto;html=1;" edge="1" parent="1">
          <mxGeometry relative="1" as="geometry">
            <mxPoint x="1113" y="360" as="targetPoint" />
            <mxPoint x="1087.5" y="270" as="sourcePoint" />
            <Array as="points">
              <mxPoint x="1112.5" y="270" />
            </Array>
          </mxGeometry>
        </mxCell>
        <mxCell id="frXkskpRQ1eDV_mQN84O-137" value="w==snowy&amp;nbsp;&lt;div&gt;or s=rainy?&lt;/div&gt;" style="rhombus;whiteSpace=wrap;html=1;" vertex="1" parent="1">
          <mxGeometry x="1000" y="230" width="85" height="80" as="geometry" />
        </mxCell>
        <mxCell id="frXkskpRQ1eDV_mQN84O-148" style="edgeStyle=orthogonalEdgeStyle;rounded=0;orthogonalLoop=1;jettySize=auto;html=1;" edge="1" parent="1" source="frXkskpRQ1eDV_mQN84O-140" target="frXkskpRQ1eDV_mQN84O-147">
          <mxGeometry relative="1" as="geometry" />
        </mxCell>
        <mxCell id="frXkskpRQ1eDV_mQN84O-140" value="input of w==snowy&amp;nbsp;&lt;div&gt;or s=rainy&lt;/div&gt;" style="shape=parallelogram;perimeter=parallelogramPerimeter;whiteSpace=wrap;html=1;fixedSize=1;" vertex="1" parent="1">
          <mxGeometry x="1040" y="360" width="129" height="50" as="geometry" />
        </mxCell>
        <mxCell id="frXkskpRQ1eDV_mQN84O-149" style="edgeStyle=orthogonalEdgeStyle;rounded=0;orthogonalLoop=1;jettySize=auto;html=1;" edge="1" parent="1" source="frXkskpRQ1eDV_mQN84O-142" target="frXkskpRQ1eDV_mQN84O-146">
          <mxGeometry relative="1" as="geometry" />
        </mxCell>
        <mxCell id="frXkskpRQ1eDV_mQN84O-142" value="input of w!=snowy&amp;nbsp;&lt;div&gt;or w!=rainy&lt;/div&gt;" style="shape=parallelogram;perimeter=parallelogramPerimeter;whiteSpace=wrap;html=1;fixedSize=1;" vertex="1" parent="1">
          <mxGeometry x="911" y="360" width="129" height="50" as="geometry" />
        </mxCell>
        <mxCell id="frXkskpRQ1eDV_mQN84O-146" value="&lt;font color=&quot;#ffff00&quot;&gt;can process main function&lt;/font&gt;" style="ellipse;whiteSpace=wrap;html=1;" vertex="1" parent="1">
          <mxGeometry x="940.5" y="430" width="70" height="70" as="geometry" />
        </mxCell>
        <mxCell id="frXkskpRQ1eDV_mQN84O-147" value="&lt;font color=&quot;#ffff00&quot;&gt;can process main function&lt;/font&gt;" style="ellipse;whiteSpace=wrap;html=1;" vertex="1" parent="1">
          <mxGeometry x="1069.5" y="430" width="70" height="70" as="geometry" />
        </mxCell>
        <mxCell id="frXkskpRQ1eDV_mQN84O-150" style="edgeStyle=orthogonalEdgeStyle;rounded=0;orthogonalLoop=1;jettySize=auto;html=1;entryX=0;entryY=0.5;entryDx=0;entryDy=0;" edge="1" parent="1" source="frXkskpRQ1eDV_mQN84O-33" target="frXkskpRQ1eDV_mQN84O-125">
          <mxGeometry relative="1" as="geometry">
            <mxPoint x="910" y="335" as="targetPoint" />
            <Array as="points">
              <mxPoint x="900" y="335" />
              <mxPoint x="900" y="65" />
            </Array>
          </mxGeometry>
        </mxCell>
        <mxCell id="frXkskpRQ1eDV_mQN84O-158" style="edgeStyle=orthogonalEdgeStyle;rounded=0;orthogonalLoop=1;jettySize=auto;html=1;entryX=0.5;entryY=0;entryDx=0;entryDy=0;" edge="1" parent="1" source="frXkskpRQ1eDV_mQN84O-155" target="frXkskpRQ1eDV_mQN84O-157">
          <mxGeometry relative="1" as="geometry">
            <mxPoint x="230" y="270" as="targetPoint" />
          </mxGeometry>
        </mxCell>
        <mxCell id="frXkskpRQ1eDV_mQN84O-155" value="string weather_input" style="rounded=0;whiteSpace=wrap;html=1;" vertex="1" parent="1">
          <mxGeometry x="165" y="200" width="130" height="30" as="geometry" />
        </mxCell>
        <mxCell id="frXkskpRQ1eDV_mQN84O-161" style="edgeStyle=orthogonalEdgeStyle;rounded=0;orthogonalLoop=1;jettySize=auto;html=1;entryX=0.5;entryY=0;entryDx=0;entryDy=0;" edge="1" parent="1" source="frXkskpRQ1eDV_mQN84O-157" target="frXkskpRQ1eDV_mQN84O-160">
          <mxGeometry relative="1" as="geometry">
            <mxPoint x="230" y="330" as="targetPoint" />
          </mxGeometry>
        </mxCell>
        <mxCell id="frXkskpRQ1eDV_mQN84O-157" value="weather w parametr" style="rounded=0;whiteSpace=wrap;html=1;" vertex="1" parent="1">
          <mxGeometry x="162.5" y="255" width="135" height="30" as="geometry" />
        </mxCell>
        <mxCell id="frXkskpRQ1eDV_mQN84O-164" value="" style="edgeStyle=orthogonalEdgeStyle;rounded=0;orthogonalLoop=1;jettySize=auto;html=1;" edge="1" parent="1" source="frXkskpRQ1eDV_mQN84O-160" target="frXkskpRQ1eDV_mQN84O-163">
          <mxGeometry relative="1" as="geometry" />
        </mxCell>
        <mxCell id="frXkskpRQ1eDV_mQN84O-160" value="cycle" style="rounded=0;whiteSpace=wrap;html=1;" vertex="1" parent="1">
          <mxGeometry x="190" y="310" width="80" height="40" as="geometry" />
        </mxCell>
        <mxCell id="frXkskpRQ1eDV_mQN84O-166" style="edgeStyle=orthogonalEdgeStyle;rounded=0;orthogonalLoop=1;jettySize=auto;html=1;entryX=0.5;entryY=0;entryDx=0;entryDy=0;" edge="1" parent="1" source="frXkskpRQ1eDV_mQN84O-163" target="frXkskpRQ1eDV_mQN84O-165">
          <mxGeometry relative="1" as="geometry" />
        </mxCell>
        <mxCell id="frXkskpRQ1eDV_mQN84O-163" value="Enter the type of weather" style="shape=parallelogram;perimeter=parallelogramPerimeter;whiteSpace=wrap;html=1;fixedSize=1;" vertex="1" parent="1">
          <mxGeometry x="166.25" y="380" width="127.5" height="40" as="geometry" />
        </mxCell>
        <mxCell id="frXkskpRQ1eDV_mQN84O-168" style="edgeStyle=orthogonalEdgeStyle;rounded=0;orthogonalLoop=1;jettySize=auto;html=1;entryX=0.5;entryY=0;entryDx=0;entryDy=0;" edge="1" parent="1" source="frXkskpRQ1eDV_mQN84O-165" target="frXkskpRQ1eDV_mQN84O-167">
          <mxGeometry relative="1" as="geometry" />
        </mxCell>
        <mxCell id="frXkskpRQ1eDV_mQN84O-165" value="weather_input" style="shape=parallelogram;perimeter=parallelogramPerimeter;whiteSpace=wrap;html=1;fixedSize=1;" vertex="1" parent="1">
          <mxGeometry x="167.5" y="440" width="125" height="35" as="geometry" />
        </mxCell>
        <mxCell id="frXkskpRQ1eDV_mQN84O-169" style="edgeStyle=orthogonalEdgeStyle;rounded=0;orthogonalLoop=1;jettySize=auto;html=1;" edge="1" parent="1" source="frXkskpRQ1eDV_mQN84O-167">
          <mxGeometry relative="1" as="geometry">
            <mxPoint x="340" y="540" as="targetPoint" />
          </mxGeometry>
        </mxCell>
        <mxCell id="frXkskpRQ1eDV_mQN84O-201" value="yes" style="edgeLabel;html=1;align=center;verticalAlign=middle;resizable=0;points=[];" vertex="1" connectable="0" parent="frXkskpRQ1eDV_mQN84O-169">
          <mxGeometry x="-0.1185" relative="1" as="geometry">
            <mxPoint as="offset" />
          </mxGeometry>
        </mxCell>
        <mxCell id="frXkskpRQ1eDV_mQN84O-174" style="edgeStyle=orthogonalEdgeStyle;rounded=0;orthogonalLoop=1;jettySize=auto;html=1;" edge="1" parent="1" source="frXkskpRQ1eDV_mQN84O-167" target="frXkskpRQ1eDV_mQN84O-173">
          <mxGeometry relative="1" as="geometry" />
        </mxCell>
        <mxCell id="frXkskpRQ1eDV_mQN84O-197" value="no" style="edgeLabel;html=1;align=center;verticalAlign=middle;resizable=0;points=[];" vertex="1" connectable="0" parent="frXkskpRQ1eDV_mQN84O-174">
          <mxGeometry x="0.2533" y="1" relative="1" as="geometry">
            <mxPoint as="offset" />
          </mxGeometry>
        </mxCell>
        <mxCell id="frXkskpRQ1eDV_mQN84O-167" value="weather_input ==sunny?" style="rhombus;whiteSpace=wrap;html=1;" vertex="1" parent="1">
          <mxGeometry x="180" y="500" width="100" height="80" as="geometry" />
        </mxCell>
        <mxCell id="frXkskpRQ1eDV_mQN84O-172" value="&lt;br style=&quot;forced-color-adjust: none; border-color: rgb(0, 0, 0); color: rgb(240, 240, 240); font-family: Helvetica; font-size: 12px; font-style: normal; font-variant-ligatures: normal; font-variant-caps: normal; font-weight: 400; letter-spacing: normal; orphans: 2; text-align: center; text-indent: 0px; text-transform: none; widows: 2; word-spacing: 0px; -webkit-text-stroke-width: 0px; white-space: normal; background-color: rgb(27, 29, 30); text-decoration-thickness: initial; text-decoration-style: initial; text-decoration-color: initial;&quot;&gt;&lt;span style=&quot;forced-color-adjust: none; border-color: rgb(0, 0, 0); color: rgb(240, 240, 240); font-family: Helvetica; font-size: 12px; font-style: normal; font-variant-ligatures: normal; font-variant-caps: normal; font-weight: 400; letter-spacing: normal; orphans: 2; text-align: center; text-indent: 0px; text-transform: none; widows: 2; word-spacing: 0px; -webkit-text-stroke-width: 0px; white-space: normal; text-decoration-thickness: initial; text-decoration-style: initial; text-decoration-color: initial; background-color: rgb(27, 29, 30); float: none; display: inline !important;&quot;&gt;process functions that mentions w=sunny&lt;/span&gt;&lt;br style=&quot;forced-color-adjust: none; border-color: rgb(0, 0, 0); color: rgb(240, 240, 240); font-family: Helvetica; font-size: 12px; font-style: normal; font-variant-ligatures: normal; font-variant-caps: normal; font-weight: 400; letter-spacing: normal; orphans: 2; text-align: center; text-indent: 0px; text-transform: none; widows: 2; word-spacing: 0px; -webkit-text-stroke-width: 0px; white-space: normal; background-color: rgb(27, 29, 30); text-decoration-thickness: initial; text-decoration-style: initial; text-decoration-color: initial;&quot;&gt;" style="text;whiteSpace=wrap;html=1;" vertex="1" parent="1">
          <mxGeometry x="361" y="499.5" width="109" height="61" as="geometry" />
        </mxCell>
        <mxCell id="frXkskpRQ1eDV_mQN84O-177" style="edgeStyle=orthogonalEdgeStyle;rounded=0;orthogonalLoop=1;jettySize=auto;html=1;entryX=0;entryY=0.5;entryDx=0;entryDy=0;" edge="1" parent="1" source="frXkskpRQ1eDV_mQN84O-173" target="frXkskpRQ1eDV_mQN84O-175">
          <mxGeometry relative="1" as="geometry" />
        </mxCell>
        <mxCell id="frXkskpRQ1eDV_mQN84O-200" value="yes" style="edgeLabel;html=1;align=center;verticalAlign=middle;resizable=0;points=[];" vertex="1" connectable="0" parent="frXkskpRQ1eDV_mQN84O-177">
          <mxGeometry x="-0.1444" y="1" relative="1" as="geometry">
            <mxPoint as="offset" />
          </mxGeometry>
        </mxCell>
        <mxCell id="frXkskpRQ1eDV_mQN84O-179" style="edgeStyle=orthogonalEdgeStyle;rounded=0;orthogonalLoop=1;jettySize=auto;html=1;entryX=0.5;entryY=0;entryDx=0;entryDy=0;" edge="1" parent="1" source="frXkskpRQ1eDV_mQN84O-173" target="frXkskpRQ1eDV_mQN84O-178">
          <mxGeometry relative="1" as="geometry" />
        </mxCell>
        <mxCell id="frXkskpRQ1eDV_mQN84O-198" value="no" style="edgeLabel;html=1;align=center;verticalAlign=middle;resizable=0;points=[];" vertex="1" connectable="0" parent="frXkskpRQ1eDV_mQN84O-179">
          <mxGeometry x="-0.1333" y="1" relative="1" as="geometry">
            <mxPoint as="offset" />
          </mxGeometry>
        </mxCell>
        <mxCell id="frXkskpRQ1eDV_mQN84O-173" value="weather_input ==cloudy?" style="rhombus;whiteSpace=wrap;html=1;" vertex="1" parent="1">
          <mxGeometry x="180" y="610" width="100" height="80" as="geometry" />
        </mxCell>
        <mxCell id="frXkskpRQ1eDV_mQN84O-175" value="" style="verticalLabelPosition=bottom;verticalAlign=top;html=1;shape=process;whiteSpace=wrap;rounded=1;size=0.14;arcSize=6;" vertex="1" parent="1">
          <mxGeometry x="340" y="620" width="140" height="60" as="geometry" />
        </mxCell>
        <mxCell id="frXkskpRQ1eDV_mQN84O-176" value="&lt;br style=&quot;forced-color-adjust: none; border-color: rgb(0, 0, 0); color: rgb(240, 240, 240); font-family: Helvetica; font-size: 12px; font-style: normal; font-variant-ligatures: normal; font-variant-caps: normal; font-weight: 400; letter-spacing: normal; orphans: 2; text-align: center; text-indent: 0px; text-transform: none; widows: 2; word-spacing: 0px; -webkit-text-stroke-width: 0px; white-space: normal; background-color: rgb(27, 29, 30); text-decoration-thickness: initial; text-decoration-style: initial; text-decoration-color: initial;&quot;&gt;&lt;span style=&quot;forced-color-adjust: none; border-color: rgb(0, 0, 0); color: rgb(240, 240, 240); font-family: Helvetica; font-size: 12px; font-style: normal; font-variant-ligatures: normal; font-variant-caps: normal; font-weight: 400; letter-spacing: normal; orphans: 2; text-align: center; text-indent: 0px; text-transform: none; widows: 2; word-spacing: 0px; -webkit-text-stroke-width: 0px; white-space: normal; text-decoration-thickness: initial; text-decoration-style: initial; text-decoration-color: initial; background-color: rgb(27, 29, 30); float: none; display: inline !important;&quot;&gt;process functions that mentions w=cloudy&lt;/span&gt;" style="text;whiteSpace=wrap;html=1;" vertex="1" parent="1">
          <mxGeometry x="361" y="610" width="109" height="61" as="geometry" />
        </mxCell>
        <mxCell id="frXkskpRQ1eDV_mQN84O-182" style="edgeStyle=orthogonalEdgeStyle;rounded=0;orthogonalLoop=1;jettySize=auto;html=1;entryX=0;entryY=0.5;entryDx=0;entryDy=0;" edge="1" parent="1" source="frXkskpRQ1eDV_mQN84O-178" target="frXkskpRQ1eDV_mQN84O-180">
          <mxGeometry relative="1" as="geometry" />
        </mxCell>
        <mxCell id="frXkskpRQ1eDV_mQN84O-199" value="yes" style="edgeLabel;html=1;align=center;verticalAlign=middle;resizable=0;points=[];" vertex="1" connectable="0" parent="frXkskpRQ1eDV_mQN84O-182">
          <mxGeometry x="-0.0111" y="1" relative="1" as="geometry">
            <mxPoint as="offset" />
          </mxGeometry>
        </mxCell>
        <mxCell id="frXkskpRQ1eDV_mQN84O-184" style="edgeStyle=orthogonalEdgeStyle;rounded=0;orthogonalLoop=1;jettySize=auto;html=1;" edge="1" parent="1" source="frXkskpRQ1eDV_mQN84O-178" target="frXkskpRQ1eDV_mQN84O-183">
          <mxGeometry relative="1" as="geometry" />
        </mxCell>
        <mxCell id="frXkskpRQ1eDV_mQN84O-194" value="no" style="edgeLabel;html=1;align=center;verticalAlign=middle;resizable=0;points=[];" vertex="1" connectable="0" parent="frXkskpRQ1eDV_mQN84O-184">
          <mxGeometry x="-0.2333" relative="1" as="geometry">
            <mxPoint as="offset" />
          </mxGeometry>
        </mxCell>
        <mxCell id="frXkskpRQ1eDV_mQN84O-178" value="weather_input ==windy?" style="rhombus;whiteSpace=wrap;html=1;" vertex="1" parent="1">
          <mxGeometry x="180" y="730" width="100" height="80" as="geometry" />
        </mxCell>
        <mxCell id="frXkskpRQ1eDV_mQN84O-180" value="" style="verticalLabelPosition=bottom;verticalAlign=top;html=1;shape=process;whiteSpace=wrap;rounded=1;size=0.14;arcSize=6;" vertex="1" parent="1">
          <mxGeometry x="340" y="740" width="140" height="60" as="geometry" />
        </mxCell>
        <mxCell id="frXkskpRQ1eDV_mQN84O-181" value="&lt;br style=&quot;forced-color-adjust: none; border-color: rgb(0, 0, 0); color: rgb(240, 240, 240); font-family: Helvetica; font-size: 12px; font-style: normal; font-variant-ligatures: normal; font-variant-caps: normal; font-weight: 400; letter-spacing: normal; orphans: 2; text-align: center; text-indent: 0px; text-transform: none; widows: 2; word-spacing: 0px; -webkit-text-stroke-width: 0px; white-space: normal; background-color: rgb(27, 29, 30); text-decoration-thickness: initial; text-decoration-style: initial; text-decoration-color: initial;&quot;&gt;&lt;span style=&quot;forced-color-adjust: none; border-color: rgb(0, 0, 0); color: rgb(240, 240, 240); font-family: Helvetica; font-size: 12px; font-style: normal; font-variant-ligatures: normal; font-variant-caps: normal; font-weight: 400; letter-spacing: normal; orphans: 2; text-align: center; text-indent: 0px; text-transform: none; widows: 2; word-spacing: 0px; -webkit-text-stroke-width: 0px; white-space: normal; text-decoration-thickness: initial; text-decoration-style: initial; text-decoration-color: initial; background-color: rgb(27, 29, 30); float: none; display: inline !important;&quot;&gt;process functions that mentions w=windy&lt;/span&gt;" style="text;whiteSpace=wrap;html=1;" vertex="1" parent="1">
          <mxGeometry x="361" y="730" width="109" height="61" as="geometry" />
        </mxCell>
        <mxCell id="frXkskpRQ1eDV_mQN84O-186" style="edgeStyle=orthogonalEdgeStyle;rounded=0;orthogonalLoop=1;jettySize=auto;html=1;entryX=0;entryY=0.5;entryDx=0;entryDy=0;" edge="1" parent="1" source="frXkskpRQ1eDV_mQN84O-183" target="frXkskpRQ1eDV_mQN84O-185">
          <mxGeometry relative="1" as="geometry" />
        </mxCell>
        <mxCell id="frXkskpRQ1eDV_mQN84O-196" value="yes" style="edgeLabel;html=1;align=center;verticalAlign=middle;resizable=0;points=[];" vertex="1" connectable="0" parent="frXkskpRQ1eDV_mQN84O-186">
          <mxGeometry x="-0.0778" y="1" relative="1" as="geometry">
            <mxPoint as="offset" />
          </mxGeometry>
        </mxCell>
        <mxCell id="frXkskpRQ1eDV_mQN84O-189" style="edgeStyle=orthogonalEdgeStyle;rounded=0;orthogonalLoop=1;jettySize=auto;html=1;entryX=0.5;entryY=0;entryDx=0;entryDy=0;" edge="1" parent="1" source="frXkskpRQ1eDV_mQN84O-183" target="frXkskpRQ1eDV_mQN84O-188">
          <mxGeometry relative="1" as="geometry" />
        </mxCell>
        <mxCell id="frXkskpRQ1eDV_mQN84O-195" value="no" style="edgeLabel;html=1;align=center;verticalAlign=middle;resizable=0;points=[];" vertex="1" connectable="0" parent="frXkskpRQ1eDV_mQN84O-189">
          <mxGeometry x="-0.3333" y="-1" relative="1" as="geometry">
            <mxPoint as="offset" />
          </mxGeometry>
        </mxCell>
        <mxCell id="frXkskpRQ1eDV_mQN84O-183" value="weather_input ==rainy?" style="rhombus;whiteSpace=wrap;html=1;" vertex="1" parent="1">
          <mxGeometry x="180" y="850" width="100" height="80" as="geometry" />
        </mxCell>
        <mxCell id="frXkskpRQ1eDV_mQN84O-185" value="" style="verticalLabelPosition=bottom;verticalAlign=top;html=1;shape=process;whiteSpace=wrap;rounded=1;size=0.14;arcSize=6;" vertex="1" parent="1">
          <mxGeometry x="340" y="860" width="140" height="60" as="geometry" />
        </mxCell>
        <mxCell id="frXkskpRQ1eDV_mQN84O-187" value="&lt;br style=&quot;forced-color-adjust: none; border-color: rgb(0, 0, 0); color: rgb(240, 240, 240); font-family: Helvetica; font-size: 12px; font-style: normal; font-variant-ligatures: normal; font-variant-caps: normal; font-weight: 400; letter-spacing: normal; orphans: 2; text-align: center; text-indent: 0px; text-transform: none; widows: 2; word-spacing: 0px; -webkit-text-stroke-width: 0px; white-space: normal; background-color: rgb(27, 29, 30); text-decoration-thickness: initial; text-decoration-style: initial; text-decoration-color: initial;&quot;&gt;&lt;span style=&quot;forced-color-adjust: none; border-color: rgb(0, 0, 0); color: rgb(240, 240, 240); font-family: Helvetica; font-size: 12px; font-style: normal; font-variant-ligatures: normal; font-variant-caps: normal; font-weight: 400; letter-spacing: normal; orphans: 2; text-align: center; text-indent: 0px; text-transform: none; widows: 2; word-spacing: 0px; -webkit-text-stroke-width: 0px; white-space: normal; text-decoration-thickness: initial; text-decoration-style: initial; text-decoration-color: initial; background-color: rgb(27, 29, 30); float: none; display: inline !important;&quot;&gt;process functions that mentions w=rainy&lt;/span&gt;" style="text;whiteSpace=wrap;html=1;" vertex="1" parent="1">
          <mxGeometry x="361" y="850" width="109" height="61" as="geometry" />
        </mxCell>
        <mxCell id="frXkskpRQ1eDV_mQN84O-191" style="edgeStyle=orthogonalEdgeStyle;rounded=0;orthogonalLoop=1;jettySize=auto;html=1;entryX=0;entryY=0.5;entryDx=0;entryDy=0;" edge="1" parent="1" source="frXkskpRQ1eDV_mQN84O-188" target="frXkskpRQ1eDV_mQN84O-190">
          <mxGeometry relative="1" as="geometry" />
        </mxCell>
        <mxCell id="frXkskpRQ1eDV_mQN84O-202" value="yes" style="edgeLabel;html=1;align=center;verticalAlign=middle;resizable=0;points=[];" vertex="1" connectable="0" parent="frXkskpRQ1eDV_mQN84O-191">
          <mxGeometry x="-0.1444" y="1" relative="1" as="geometry">
            <mxPoint as="offset" />
          </mxGeometry>
        </mxCell>
        <mxCell id="frXkskpRQ1eDV_mQN84O-205" style="edgeStyle=orthogonalEdgeStyle;rounded=0;orthogonalLoop=1;jettySize=auto;html=1;" edge="1" parent="1" source="frXkskpRQ1eDV_mQN84O-188" target="frXkskpRQ1eDV_mQN84O-203">
          <mxGeometry relative="1" as="geometry" />
        </mxCell>
        <mxCell id="frXkskpRQ1eDV_mQN84O-211" style="edgeStyle=orthogonalEdgeStyle;rounded=0;orthogonalLoop=1;jettySize=auto;html=1;" edge="1" parent="1" source="frXkskpRQ1eDV_mQN84O-188" target="frXkskpRQ1eDV_mQN84O-209">
          <mxGeometry relative="1" as="geometry" />
        </mxCell>
        <mxCell id="frXkskpRQ1eDV_mQN84O-188" value="weather_input ==snowy?" style="rhombus;whiteSpace=wrap;html=1;" vertex="1" parent="1">
          <mxGeometry x="180" y="970" width="100" height="80" as="geometry" />
        </mxCell>
        <mxCell id="frXkskpRQ1eDV_mQN84O-190" value="" style="verticalLabelPosition=bottom;verticalAlign=top;html=1;shape=process;whiteSpace=wrap;rounded=1;size=0.14;arcSize=6;" vertex="1" parent="1">
          <mxGeometry x="340" y="980" width="140" height="60" as="geometry" />
        </mxCell>
        <mxCell id="frXkskpRQ1eDV_mQN84O-192" value="&lt;br style=&quot;forced-color-adjust: none; border-color: rgb(0, 0, 0); color: rgb(240, 240, 240); font-family: Helvetica; font-size: 12px; font-style: normal; font-variant-ligatures: normal; font-variant-caps: normal; font-weight: 400; letter-spacing: normal; orphans: 2; text-align: center; text-indent: 0px; text-transform: none; widows: 2; word-spacing: 0px; -webkit-text-stroke-width: 0px; white-space: normal; background-color: rgb(27, 29, 30); text-decoration-thickness: initial; text-decoration-style: initial; text-decoration-color: initial;&quot;&gt;&lt;span style=&quot;forced-color-adjust: none; border-color: rgb(0, 0, 0); color: rgb(240, 240, 240); font-family: Helvetica; font-size: 12px; font-style: normal; font-variant-ligatures: normal; font-variant-caps: normal; font-weight: 400; letter-spacing: normal; orphans: 2; text-align: center; text-indent: 0px; text-transform: none; widows: 2; word-spacing: 0px; -webkit-text-stroke-width: 0px; white-space: normal; text-decoration-thickness: initial; text-decoration-style: initial; text-decoration-color: initial; background-color: rgb(27, 29, 30); float: none; display: inline !important;&quot;&gt;process functions that mentions w=rainy&lt;/span&gt;" style="text;whiteSpace=wrap;html=1;" vertex="1" parent="1">
          <mxGeometry x="361" y="970" width="109" height="61" as="geometry" />
        </mxCell>
        <mxCell id="frXkskpRQ1eDV_mQN84O-206" style="edgeStyle=orthogonalEdgeStyle;rounded=0;orthogonalLoop=1;jettySize=auto;html=1;entryX=0;entryY=0.5;entryDx=0;entryDy=0;" edge="1" parent="1" source="frXkskpRQ1eDV_mQN84O-203" target="frXkskpRQ1eDV_mQN84O-160">
          <mxGeometry relative="1" as="geometry">
            <mxPoint x="90" y="330" as="targetPoint" />
            <Array as="points">
              <mxPoint x="90" y="330" />
            </Array>
          </mxGeometry>
        </mxCell>
        <mxCell id="frXkskpRQ1eDV_mQN84O-203" value="Invalid input" style="shape=parallelogram;perimeter=parallelogramPerimeter;whiteSpace=wrap;html=1;fixedSize=1;" vertex="1" parent="1">
          <mxGeometry x="30" y="990" width="120" height="40" as="geometry" />
        </mxCell>
        <mxCell id="frXkskpRQ1eDV_mQN84O-207" value="&#xa;&lt;br style=&quot;forced-color-adjust: none; border-color: rgb(0, 0, 0); color: rgb(240, 240, 240); font-family: Helvetica; font-size: 12px; font-style: normal; font-variant-ligatures: normal; font-variant-caps: normal; font-weight: 400; letter-spacing: normal; orphans: 2; text-indent: 0px; text-transform: none; widows: 2; word-spacing: 0px; -webkit-text-stroke-width: 0px; white-space: normal; text-decoration-thickness: initial; text-decoration-style: initial; text-decoration-color: initial; text-align: center; background-color: rgb(27, 29, 30);&quot;&gt;&lt;span style=&quot;forced-color-adjust: none; border-color: rgb(0, 0, 0); color: rgb(240, 240, 240); font-family: Helvetica; font-size: 12px; font-style: normal; font-variant-ligatures: normal; font-variant-caps: normal; font-weight: 400; letter-spacing: normal; orphans: 2; text-indent: 0px; text-transform: none; widows: 2; word-spacing: 0px; -webkit-text-stroke-width: 0px; white-space: normal; text-decoration-thickness: initial; text-decoration-style: initial; text-decoration-color: initial; text-align: center; background-color: rgb(27, 29, 30); float: none; display: inline !important;&quot;&gt;process functions that mentions w=rainy&lt;/span&gt;&#xa;&#xa;" style="verticalLabelPosition=bottom;verticalAlign=top;html=1;shape=process;whiteSpace=wrap;rounded=1;size=0.14;arcSize=6;" vertex="1" parent="1">
          <mxGeometry x="170" y="1070" width="120" height="60" as="geometry" />
        </mxCell>
        <mxCell id="frXkskpRQ1eDV_mQN84O-208" value="" style="verticalLabelPosition=bottom;verticalAlign=top;html=1;shape=process;whiteSpace=wrap;rounded=1;size=0.14;arcSize=6;" vertex="1" parent="1">
          <mxGeometry x="170" y="1160" width="120" height="60" as="geometry" />
        </mxCell>
        <mxCell id="frXkskpRQ1eDV_mQN84O-209" value="Activating the Activity_type function" style="text;whiteSpace=wrap;html=1;" vertex="1" parent="1">
          <mxGeometry x="190" y="1070" width="80" height="50" as="geometry" />
        </mxCell>
        <mxCell id="frXkskpRQ1eDV_mQN84O-210" value="&lt;span style=&quot;color: rgb(240, 240, 240); font-family: Helvetica; font-size: 12px; font-style: normal; font-variant-ligatures: normal; font-variant-caps: normal; font-weight: 400; letter-spacing: normal; orphans: 2; text-align: left; text-indent: 0px; text-transform: none; widows: 2; word-spacing: 0px; -webkit-text-stroke-width: 0px; white-space: normal; background-color: rgb(27, 29, 30); text-decoration-thickness: initial; text-decoration-style: initial; text-decoration-color: initial; display: inline !important; float: none;&quot;&gt;Activating the Jacket_need function&lt;/span&gt;" style="text;whiteSpace=wrap;html=1;" vertex="1" parent="1">
          <mxGeometry x="190" y="1160" width="110" height="40" as="geometry" />
        </mxCell>
        <mxCell id="frXkskpRQ1eDV_mQN84O-214" style="edgeStyle=orthogonalEdgeStyle;rounded=0;orthogonalLoop=1;jettySize=auto;html=1;entryX=0.361;entryY=0.05;entryDx=0;entryDy=0;entryPerimeter=0;" edge="1" parent="1" source="frXkskpRQ1eDV_mQN84O-207" target="frXkskpRQ1eDV_mQN84O-210">
          <mxGeometry relative="1" as="geometry" />
        </mxCell>
        <mxCell id="frXkskpRQ1eDV_mQN84O-218" style="edgeStyle=orthogonalEdgeStyle;rounded=0;orthogonalLoop=1;jettySize=auto;html=1;entryX=0.5;entryY=0;entryDx=0;entryDy=0;" edge="1" parent="1" source="frXkskpRQ1eDV_mQN84O-215" target="frXkskpRQ1eDV_mQN84O-216">
          <mxGeometry relative="1" as="geometry">
            <mxPoint x="70" y="1260" as="targetPoint" />
          </mxGeometry>
        </mxCell>
        <mxCell id="frXkskpRQ1eDV_mQN84O-223" value="sunny" style="edgeLabel;html=1;align=center;verticalAlign=middle;resizable=0;points=[];" vertex="1" connectable="0" parent="frXkskpRQ1eDV_mQN84O-218">
          <mxGeometry x="0.6137" relative="1" as="geometry">
            <mxPoint as="offset" />
          </mxGeometry>
        </mxCell>
        <mxCell id="frXkskpRQ1eDV_mQN84O-221" style="edgeStyle=orthogonalEdgeStyle;rounded=0;orthogonalLoop=1;jettySize=auto;html=1;entryX=0.5;entryY=0;entryDx=0;entryDy=0;" edge="1" parent="1" source="frXkskpRQ1eDV_mQN84O-215" target="frXkskpRQ1eDV_mQN84O-220">
          <mxGeometry relative="1" as="geometry" />
        </mxCell>
        <mxCell id="frXkskpRQ1eDV_mQN84O-222" value="cloudy" style="edgeLabel;html=1;align=center;verticalAlign=middle;resizable=0;points=[];" vertex="1" connectable="0" parent="frXkskpRQ1eDV_mQN84O-221">
          <mxGeometry x="-0.019" y="-1" relative="1" as="geometry">
            <mxPoint as="offset" />
          </mxGeometry>
        </mxCell>
        <mxCell id="frXkskpRQ1eDV_mQN84O-225" style="edgeStyle=orthogonalEdgeStyle;rounded=0;orthogonalLoop=1;jettySize=auto;html=1;" edge="1" parent="1" source="frXkskpRQ1eDV_mQN84O-215" target="frXkskpRQ1eDV_mQN84O-224">
          <mxGeometry relative="1" as="geometry">
            <mxPoint x="400" y="1260" as="targetPoint" />
          </mxGeometry>
        </mxCell>
        <mxCell id="frXkskpRQ1eDV_mQN84O-226" value="windy" style="edgeLabel;html=1;align=center;verticalAlign=middle;resizable=0;points=[];" vertex="1" connectable="0" parent="frXkskpRQ1eDV_mQN84O-225">
          <mxGeometry x="0.6715" y="1" relative="1" as="geometry">
            <mxPoint as="offset" />
          </mxGeometry>
        </mxCell>
        <mxCell id="frXkskpRQ1eDV_mQN84O-229" style="edgeStyle=orthogonalEdgeStyle;rounded=0;orthogonalLoop=1;jettySize=auto;html=1;" edge="1" parent="1" source="frXkskpRQ1eDV_mQN84O-215" target="frXkskpRQ1eDV_mQN84O-227">
          <mxGeometry relative="1" as="geometry">
            <mxPoint x="560" y="1260" as="targetPoint" />
          </mxGeometry>
        </mxCell>
        <mxCell id="frXkskpRQ1eDV_mQN84O-230" value="rainy" style="edgeLabel;html=1;align=center;verticalAlign=middle;resizable=0;points=[];" vertex="1" connectable="0" parent="frXkskpRQ1eDV_mQN84O-229">
          <mxGeometry x="0.8258" relative="1" as="geometry">
            <mxPoint as="offset" />
          </mxGeometry>
        </mxCell>
        <mxCell id="frXkskpRQ1eDV_mQN84O-231" style="edgeStyle=orthogonalEdgeStyle;rounded=0;orthogonalLoop=1;jettySize=auto;html=1;entryX=0.5;entryY=0;entryDx=0;entryDy=0;" edge="1" parent="1" source="frXkskpRQ1eDV_mQN84O-215" target="frXkskpRQ1eDV_mQN84O-228">
          <mxGeometry relative="1" as="geometry">
            <mxPoint x="740" y="1260" as="targetPoint" />
          </mxGeometry>
        </mxCell>
        <mxCell id="frXkskpRQ1eDV_mQN84O-232" value="snowy" style="edgeLabel;html=1;align=center;verticalAlign=middle;resizable=0;points=[];" vertex="1" connectable="0" parent="frXkskpRQ1eDV_mQN84O-231">
          <mxGeometry x="0.8801" y="2" relative="1" as="geometry">
            <mxPoint as="offset" />
          </mxGeometry>
        </mxCell>
        <mxCell id="frXkskpRQ1eDV_mQN84O-215" value="switch for weather" style="rounded=0;whiteSpace=wrap;html=1;" vertex="1" parent="1">
          <mxGeometry x="175" y="1240" width="110" height="40" as="geometry" />
        </mxCell>
        <mxCell id="frXkskpRQ1eDV_mQN84O-234" style="edgeStyle=orthogonalEdgeStyle;rounded=0;orthogonalLoop=1;jettySize=auto;html=1;entryX=0.003;entryY=0.592;entryDx=0;entryDy=0;entryPerimeter=0;" edge="1" parent="1" source="frXkskpRQ1eDV_mQN84O-216" target="frXkskpRQ1eDV_mQN84O-233">
          <mxGeometry relative="1" as="geometry">
            <mxPoint x="70" y="1550" as="targetPoint" />
            <Array as="points">
              <mxPoint x="70" y="1547" />
            </Array>
          </mxGeometry>
        </mxCell>
        <mxCell id="frXkskpRQ1eDV_mQN84O-216" value="output of sunny case" style="rounded=0;whiteSpace=wrap;html=1;" vertex="1" parent="1">
          <mxGeometry x="10" y="1350" width="120" height="40" as="geometry" />
        </mxCell>
        <mxCell id="frXkskpRQ1eDV_mQN84O-235" style="edgeStyle=orthogonalEdgeStyle;rounded=0;orthogonalLoop=1;jettySize=auto;html=1;entryX=0;entryY=0;entryDx=0;entryDy=0;" edge="1" parent="1" source="frXkskpRQ1eDV_mQN84O-220" target="frXkskpRQ1eDV_mQN84O-233">
          <mxGeometry relative="1" as="geometry">
            <Array as="points">
              <mxPoint x="230" y="1512" />
            </Array>
          </mxGeometry>
        </mxCell>
        <mxCell id="frXkskpRQ1eDV_mQN84O-220" value="output of cloudy case" style="rounded=0;whiteSpace=wrap;html=1;" vertex="1" parent="1">
          <mxGeometry x="170" y="1350" width="120" height="40" as="geometry" />
        </mxCell>
        <mxCell id="frXkskpRQ1eDV_mQN84O-236" style="edgeStyle=orthogonalEdgeStyle;rounded=0;orthogonalLoop=1;jettySize=auto;html=1;entryX=0.5;entryY=0;entryDx=0;entryDy=0;" edge="1" parent="1" source="frXkskpRQ1eDV_mQN84O-224" target="frXkskpRQ1eDV_mQN84O-233">
          <mxGeometry relative="1" as="geometry" />
        </mxCell>
        <mxCell id="frXkskpRQ1eDV_mQN84O-224" value="output of windy case" style="rounded=0;whiteSpace=wrap;html=1;" vertex="1" parent="1">
          <mxGeometry x="340" y="1350" width="120" height="40" as="geometry" />
        </mxCell>
        <mxCell id="frXkskpRQ1eDV_mQN84O-237" style="edgeStyle=orthogonalEdgeStyle;rounded=0;orthogonalLoop=1;jettySize=auto;html=1;entryX=1;entryY=0;entryDx=0;entryDy=0;" edge="1" parent="1" source="frXkskpRQ1eDV_mQN84O-227" target="frXkskpRQ1eDV_mQN84O-233">
          <mxGeometry relative="1" as="geometry">
            <mxPoint x="570" y="1520" as="targetPoint" />
            <Array as="points">
              <mxPoint x="570" y="1512" />
            </Array>
          </mxGeometry>
        </mxCell>
        <mxCell id="frXkskpRQ1eDV_mQN84O-227" value="output of rainy case" style="rounded=0;whiteSpace=wrap;html=1;" vertex="1" parent="1">
          <mxGeometry x="510" y="1350" width="120" height="40" as="geometry" />
        </mxCell>
        <mxCell id="frXkskpRQ1eDV_mQN84O-238" style="edgeStyle=orthogonalEdgeStyle;rounded=0;orthogonalLoop=1;jettySize=auto;html=1;entryX=1;entryY=0.5;entryDx=0;entryDy=0;" edge="1" parent="1" source="frXkskpRQ1eDV_mQN84O-228" target="frXkskpRQ1eDV_mQN84O-233">
          <mxGeometry relative="1" as="geometry">
            <mxPoint x="740" y="1550" as="targetPoint" />
            <Array as="points">
              <mxPoint x="740" y="1540" />
            </Array>
          </mxGeometry>
        </mxCell>
        <mxCell id="frXkskpRQ1eDV_mQN84O-228" value="output of snowy case" style="rounded=0;whiteSpace=wrap;html=1;" vertex="1" parent="1">
          <mxGeometry x="680" y="1350" width="120" height="40" as="geometry" />
        </mxCell>
        <mxCell id="frXkskpRQ1eDV_mQN84O-233" value="&lt;font color=&quot;#ff3333&quot;&gt;End&lt;/font&gt;" style="ellipse;whiteSpace=wrap;html=1;" vertex="1" parent="1">
          <mxGeometry x="340" y="1500" width="120" height="80" as="geometry" />
        </mxCell>
      </root>
    </mxGraphModel>
  </diagram>
</mxfile>
